<?xml version="1.0" encoding="utf-8"?>
<!-- Generator: Adobe Illustrator 15.0.0, SVG Export Plug-In . SVG Version: 6.00 Build 0)  -->
<!DOCTYPE svg PUBLIC "-//W3C//DTD SVG 1.1//EN" "http://www.w3.org/Graphics/SVG/1.1/DTD/svg11.dtd">
<svg version="1.1" id="_x32_" xmlns="http://www.w3.org/2000/svg" xmlns:xlink="http://www.w3.org/1999/xlink" x="0px" y="0px"
	 width="600px" height="600px" viewBox="0 0 600 600" enable-background="new 0 0 600 600" xml:space="preserve">
<path fill="none" stroke="#0D0F0F" stroke-miterlimit="10" d="M591.497,164.591c1.266-3.249-0.765-5.467-3.679-5.644
	c0.126-0.726,0.098-1.459-0.193-2.158c-0.862-2.07-3.214-2.033-5.205-2.118c-0.014-0.272-0.038-0.548-0.082-0.833
	c-0.278-1.844-3.029-1.981-3.839-0.502c-1.608,2.94-3.768,5.652-6.095,8.071c0.255-0.989,0.428-1.986,0.493-3.072
	c0.116-0.795-0.013-1.582-0.538-2.337c-0.563-0.811-1.764-0.91-2.306,0c-1.033,1.731-2.013,3.339-3.422,4.813
	c-1.048,1.097-2.479,2.082-3.229,3.44c-0.27,0.222-0.475,0.528-0.569,0.924c-0.746,3.12-0.468,6.224-0.212,9.391
	c0.068,0.851,0.103,1.724,0.126,2.604c-0.961,1.205-1.736,2.565-2.778,3.74c-3.181,3.586-11.312,7.528-15.024,9.704
	c-3.615,2.119-7.281,4.042-11.002,5.96c-0.251,0.129-0.5,0.266-0.747,0.406c-0.893,0.345-1.79,0.679-2.727,0.917
	c-1.795,0.458-7.496-0.835-8.806-1.194c-1.646-0.451-3.309-0.564-4.828-1.239c-0.127-0.154-0.287-0.291-0.487-0.401
	c0.053-0.237,0.017-0.5-0.164-0.761c-1.537-2.223-3.829-2.94-6.231-4.109c-4.272-2.079-8.265-4.797-12.384-7.159
	c-3.568-2.045-7.373-3.599-10.889-5.734c-2.282-1.387-4.418-3.009-6.702-4.368c2.514-2.59,3.337-6.805,5.725-9.546
	c0.484,2.911,1.565,5.516,3.087,7.996c0.854,2.313,2.171,4.631,4.093,5.364c0.451,0.172,0.849-0.512,0.477-0.819
	c-2.083-1.819-3.191-7.585-3.253-9.892c-0.018-0.617,0.016-1.234,0.064-1.852c0.04,0.295,0.097,0.586,0.161,0.876
	c0.571,3.438,2.095,6.453,4.528,9.642c0.392,0.513,1.133,0.091,0.866-0.506c-0.487-1.092-0.822-2.199-1.054-3.319
	c0.035,0.051,0.065,0.102,0.102,0.151c0.457,0.619,1.38,0.1,1.038-0.607c-1.918-3.939,0.466-8.506,1.149-12.487
	c0.369-2.146,0.656-4.315,0.925-6.484c0.214-1.417,0.446-2.782,0.692-4.131c0.162,1.14,0.285,2.292,0.506,3.444
	c0.055,0.291,0.506,0.275,0.571,0c0.683-2.863,1.146-5.666,0.134-8.438c0.009-0.275,0.02-0.551,0.03-0.826
	c0.135-0.549,0.284-1.109,0.432-1.664c1.054,1.954,2.295,3.957,3.913,4.832c0.346,0.187,0.743-0.281,0.432-0.559
	c-0.656-0.585-1.202-1.444-1.69-2.403c-0.184-1.021-0.392-2.021-0.645-3.006c0.904,1.882,1.876,3.709,3.358,5.145
	c0.028,0.027,0.059,0.044,0.09,0.063c0.503,0.955,1.114,1.853,1.914,2.655c0.307,0.309,0.772-0.082,0.583-0.45
	c-1.781-3.469-1.795-7.78-2.481-11.615c-0.167-0.932-0.382-1.761-0.646-2.526c0.627,0.696,1.432,1.417,2.201,2.167
	c1.316,2.033,2.663,4.039,4.234,5.836c0.359,0.412,1.016-0.119,0.744-0.574c-2.891-4.858-5.107-10.157-8.829-14.514
	c-2.662-3.118-6.309-5.191-9.923-7.285c-2.695-2.659-5.936-4.893-9.164-6.577c1.16-0.197,2.263-0.489,3.355-1.056
	c0.509-0.265,0.291-1.159-0.301-1.108c-3.864,0.334-7.626-1.584-11.442-1.114c-0.451,0.056-1.105,0.102-1.786,0.194
	c-1.025-0.012-2.033,0.07-3.017,0.245c-2.675-0.513-5.184,0.48-7.282,2.592c-0.682,0.686-1.458,1.441-2.198,2.255
	c-0.759,0.682-1.482,1.413-2.162,2.193c-2.325,1.663-3.715,3.929-5.149,6.509c-1.032,1.859-1.789,3.714-3.181,5.359
	c-1.65,1.951-6.337,2.554-8.723,2.438c-0.686-0.048-0.744,0.939-0.153,1.14c0.418,0.143,0.869,0.243,1.338,0.316
	c1.607,0.404,3.201,0.863,4.819,1.183c-0.728,0.847-1.302,1.894-2.029,2.668c-0.92,0.979-2.081,1.702-3.033,2.629
	c-3.942,1.509-8.206,2.382-12.262,3.494c-5.768-2.541-11.831-6.054-18.185-6.527c-2.992-0.222-6.242,0.788-9.114,1.462
	c-4.041,0.949-8.116,1.726-12.084,2.956c-5.453,1.69-11.281,2.282-16.809,3.715c3.787-5.525,7.39-11.209,12.196-15.988
	c3.845-3.822,6.715-8.589,11.21-11.731c0.462-0.323,0.941-0.612,1.429-0.889c2.04,0.721,4.846,0.952,5.67,0.974
	c0.313,0.008,0.616-0.007,0.916-0.027c0.037,0.172,0.074,0.343,0.094,0.528c0.146,1.393,1.21,2.296,2.631,2.004
	c0.659-0.135,1.42-0.45,2.196-0.888c1.324-0.42,2.649-0.87,3.739-1.742c0.925-0.741,1.338-1.815,1.146-2.981
	c-0.012-0.073-0.037-0.141-0.057-0.211c0.102-0.227,0.192-0.455,0.262-0.683c0.005-0.002,0.01-0.002,0.015-0.004
	c1.823-0.663,2.996-2.266,3.351-4.055c0.631-0.424,1.224-0.9,1.73-1.491c0.741-0.863,1.171-2.438,0.818-3.671
	c0.275-0.265,0.536-0.538,0.771-0.822c0.722-0.875,0.937-2.216,0-3.065c-1.932-1.752-4.154-3.2-6.295-4.735
	c-0.146-0.185-0.317-0.351-0.508-0.494c-1.66-2.033-4.376-4.718-6.55-4.491c-3.906,0.408-6.204,2.877-8.844,5.603
	c-3.378,3.486-6.604,7.064-9.812,10.689c-1.23,1.003-2.448,2.011-3.671,2.972c-4.979,3.913-10.479,6.932-15.623,10.593
	c-4.792,3.41-9.093,7.237-13.011,11.453c-0.579-1.226-1.363-2.428-1.893-3.533c-0.812-1.693-2.081-2.664-3.676-3.205
	c-5.837-1.368-9.311-0.712-13.025,1.41c-2.151,1.229-4.094,3.03-6.171,4.548c-2.343,0.088-4.679,0.294-6.829,0.328
	c-5.686,0.089-11.37,0.479-17.052,0.727c-5.286,0.23-10.605,0.471-15.895,0.254c-2.576-0.105-5.196-0.421-7.732-0.18
	c-0.051-0.117-0.107-0.234-0.184-0.351c-3.378-5.152-9.227-3.01-14.333-2.425c-9.907,1.137-20.206,1.065-30.173,0.969
	c-10.03-0.097-20.095,0.406-30.058-1.069c-4.641-0.687-9.503-1.906-13.707-4.022c-3.356-1.689-5.458-4.021-8.947-4.919
	c-0.383-0.177-0.788-0.331-1.222-0.454c-2.721-0.767-5.957,0.3-8.718,0.382c-1.119,0.033-2.213,0.039-3.303,0.027
	c0.654-4.159,2.369-18.542,2.068-24.742c-0.21-4.345-2.129-12.748-4.085-16.913c-0.148-0.316-0.309-0.623-0.472-0.927
	c-0.315-1.251-0.741-2.476-1.42-3.656c-1.658-2.881-5.008-4.733-7.886-6.12c-3.25-1.566-6.845-2.26-10.472-2.298
	c-2.597-0.293-5.345-0.287-7.819,0.267c-3.391,0.263-6.999,1.535-9.161,2.684c-5.156,2.737-8.692,7.544-10.741,12.886
	c-2.382,6.21-1.189,13.981-0.771,20.431c0.074,1.14,0.264,2.308,0.55,3.482c-2.285,2.137-4.248,4.543-5.642,6.626
	c-0.849,1.269-1.648,3.397-2.004,5.597c-1.945,0.198-3.899,0.351-5.797,0.54c-2.202,0.218-4.635,0.363-6.666,1.313
	c-0.68,0.318-1.201,0.672-1.639,1.057c-0.111,0.037-0.225,0.061-0.331,0.124c-1.751,1.038-3.196,2.416-4.542,3.9
	c-3.326,2.741-6.44,5.707-9.579,8.701c-3.07,2.928-7.095,5.06-10.328,7.874c-1.206-0.103-2.416-0.218-3.64-0.379
	c-2.792-0.369-5.69-0.071-8.502-0.272c-0.501-0.036-1-0.097-1.5-0.167c-5.506-3.685-13.41-6.174-19.519-5.659
	c-1.597,0.135-3.953,0.764-6.042,1.818c-0.478,0.042-0.959,0.114-1.434,0.205c-1.354-0.403-2.705-0.821-4.058-1.232
	c-0.437-0.37-0.884-0.737-1.326-1.131c-1.636-1.46-3.352-2.96-4.663-4.728c-1.686-2.273-3.822-5.286-6.99-5.001
	c-0.019,0.001-0.033,0.009-0.052,0.011c-0.843-0.049-1.499,0.549-1.989,1.386c-0.085-0.004-0.17-0.009-0.26-0.001
	c-1.7,0.144-2.567,1.379-3.043,2.847c-1.871,0.117-3.275,1.963-3.809,3.774c-0.5-0.014-1.017,0.135-1.44,0.497
	c-1.695,1.446-1.797,4.1-1.062,6.425c0.046,1.193,0.261,2.377,0.973,3.268c0.795,1.386,2.338,2.679,3.242,3.423
	c0.449,0.369,1.052,0.81,1.722,1.189c1.586,1.746,4.477,0.82,6.576-0.673c1.903,1.136,4.618,1.428,6.648,1.692
	c1.228,0.159,2.514,0.304,3.823,0.421c0.792,2.035,2.45,3.732,4.876,4.482c2.954,0.912,5.773,0.797,8.797,0.322
	c0.82-0.128,1.622-0.319,2.423-0.512c2.075,0.668,4.165,1.301,6.251,1.966c6.305,2.009,12.025,4.747,18.608,5.797
	c5.379,0.858,10.27,0.687,15.625-0.181c1.504-0.244,3.034-0.462,4.572-0.674c-0.038,0.678-0.067,1.344-0.09,1.983
	c-0.287,7.851,0.11,15.557-0.64,23.417c-0.88,9.229-2.108,18.518-3.476,27.688c-0.931,6.236-6.347,13.649-3.445,19.914
	c0.088,0.61,0.873,0.648,1.104,0.089c0.066-0.162,0.141-0.313,0.211-0.468c0.21-0.388,0.404-0.781,0.581-1.184
	c2.626-4.879,6.909-7.343,11.201-10.924c-1.25,2.352-2.519,4.684-3.537,7.021c-1.48,3.399-2.983,7.112-3.72,10.837
	c-0.207,0.559-0.356,1.148-0.467,1.755c-0.271,0.954-0.397,1.956-0.475,2.978c-0.231,1.335-0.387,2.699-0.477,4.077
	c-0.254,1.346-0.456,2.705-0.549,4.094c-0.113,1.668-0.027,3.231,0.163,4.751c-0.382,4.213,0.18,8.57,0.589,12.722
	c0.716,7.268,1.567,14.786,3.298,21.906c0.003,0.025,0.007,0.053,0.01,0.079c1.214,8.851,3.648,17.41,7.128,25.63
	c2.259,5.336,4.608,11.128,7.657,16.319c0.61,1.575,1.212,3.147,1.609,4.738c1.395,5.587,2.812,9.867,6.318,14.535
	c3.286,4.373,4.88,9.744,8.023,14.224c2.482,3.535,5.497,6.334,7.435,10.055c-1.065,7.265-1.505,14.808-2.176,21.984
	c-0.1,1.073-0.171,2.146-0.233,3.222c-0.741,0.328-1.436,0.749-1.936,1.359c-0.127,0.118-0.249,0.251-0.354,0.421
	c-0.005,0.008-0.009,0.018-0.015,0.025c-0.419,0.352-0.686,0.882-0.659,1.477c-0.381,1.269-0.338,2.573-0.24,4.023
	c0.236,3.494,0.275,6.983,0.416,10.481c0.3,7.442-0.904,15.196-1.29,22.643c-0.208,4.008-0.23,8.179-1.027,12.115
	c-0.641,3.17-2.062,6.213-3.031,9.292c-0.794,2.521-1.207,5.312-1.132,8.074c-0.405,1.915-0.674,3.867-1.079,5.788
	c-1.022,4.84-4.562,9.223-7.168,13.325c-4.848,7.626-7.08,14.752-8.123,23.245c-0.27,1.271-0.452,2.575-0.384,3.799
	c-0.003,0.039-0.008,0.079-0.011,0.118c-0.017,0.206,0.021,0.419,0.089,0.629c0.252,1.691,1.073,3.159,2.939,4.049
	c1.8,0.857,4.544,0.737,6.963-0.069c4.222-0.755,8.804-2.915,11.416-4.753c3.068-1.717,5.797-3.73,7.722-5.491
	c3.859-3.529,3.758-9.169,4.475-13.936c0.302-2.01,0.582-4.014,0.882-6.012c0.084-0.093,0.156-0.203,0.203-0.334
	c2.179-6.078,4.572-12.115,6.953-18.145c2.754-6.976,2.899-13.655,3.629-21.001c0.805-8.1,2.838-16.048,5.076-23.85
	c1.512-5.272,3.894-11.053,4.282-16.673c0.011-0.025,0.02-0.053,0.031-0.079c-0.009-0.002-0.017-0.004-0.026-0.006
	c0-0.006,0-0.01,0.001-0.016c0.031-0.184,0.078-0.361,0.102-0.552c0.042-0.33,0.018-0.618-0.056-0.867
	c0-0.174,0.006-0.35,0.002-0.523c-0.02-0.782-0.65-1.172-1.265-1.174c-0.776-1.018-1.99-1.745-3.048-2.437
	c-0.413-0.269-0.842-0.486-1.279-0.68c0.41-1.449,0.822-2.897,1.214-4.354c0.76-2.818,1.293-5.668,1.624-8.535
	c0.742-3.168,1.373-6.383,1.813-9.681c1.131-8.472,1.194-17.033,0.621-25.548c-0.247-3.672-0.425-7.464-0.714-11.254
	c0.255-5.118,0.694-10.186,1.414-15.266c0.167-1.176,0.44-2.305,0.7-3.421c1.187-3.553,2.225-7.153,3.255-10.547
	c2.129-7.011,2.377-15.167,2.808-22.449c0.548-9.268,0.519-18.617,0.813-27.899c0.146-4.585,0.127-9.189-0.324-13.756
	c-0.272-2.751-1.112-5.438-1.946-8.103c-0.674-7.296-4.218-14.762-4.603-21.777c-0.113-2.063,0.518-4.324,1.374-6.569
	c7.607,1.051,15.919-2.191,22.918-4.592c3.624-1.244,6.76-3.448,10.212-5.058c0.643-0.299,1.28-0.599,1.918-0.896
	c6.753,6.066,14.273,11.226,20.602,17.814c0.017,0.018,0.034,0.027,0.052,0.043c0.022,0.032,0.048,0.059,0.07,0.091
	c0.469,0.648,1.161,1.023,1.976,0.804c13.683-3.676,6.042-23.445,1.151-31.325c-2.585-4.166-6.004-7.767-8.685-11.876
	c-3.394-5.204-6.236-10.733-9.171-16.201c-0.037-0.094-0.079-0.189-0.115-0.283c-1.308-3.399-2.403-6.932-3.313-10.526
	c5.462-0.839,11.97-0.014,17.085,0.141c7.764,0.235,15.536,0.337,23.305,0.357c7.906,0.02,15.803-0.255,23.669-1.076
	c7.098-0.741,14.534,0.877,21.483-0.626c0.955-0.207,1.458-0.811,1.61-1.511c0.031-0.019,0.063-0.036,0.093-0.056
	c0.521-0.355,0.857-0.875,1.125-1.431c0.176-0.237,0.336-0.472,0.476-0.699c0.27-0.438,0.54-0.974,0.786-1.568
	c1.842-0.088,3.691-0.345,5.47-0.593c6.591-0.921,13.183-1.733,19.799-2.454c6.375-0.695,12.752-1.366,19.12-2.114
	c1.878-0.221,3.859-0.348,5.847-0.526c3.899,0.523,8.072,0.365,11.688-0.989c0.158,0.083,0.327,0.144,0.502,0.189
	c-2.496,3.211-5.266,5.565-8.545,8.064c-2.451,1.868-5.276,4.124-6.382,7.123c-1.031,2.796-0.687,5.386,1.06,7.814
	c0.786,1.092,1.843,1.795,3.007,2.338c2.054,2.173,4.989,3.693,7.676,4.58c2.729,0.903,5.905,0.739,8.733,0.803
	c4.384,0.099,8.739,0.531,13.101,0.954c5.916,0.574,11.899,0.602,17.858,0.611c-1.435,5.792-2.627,11.643-4.036,17.462
	c-2.087,8.613-5.526,16.845-9.748,24.625c-2.578,2.385-4.83,4.466-6.497,7.828c-2.299,4.636-6.444,8.025-10.043,11.625
	c-2.749,2.749-4.905,5.949-7.22,9.045c-2.728,2.705-5.285,5.522-7.573,8.41c-0.65,0.819-0.6,1.898-0.07,2.584
	c0.064,0.222,0.154,0.45,0.3,0.681c0.811,1.293,1.808,2.346,2.912,3.268c-1.376,2.229-2.607,4.551-3.682,6.854
	c-0.926,1.008-1.823,2.02-2.654,3.027c-6.857,8.315-10.73,18.836-13.997,28.974c-3.458,10.735-6.149,21.824-8.853,32.771
	c-1.427,5.776-3.44,10.658-6.868,15.533c-1.607,2.288-2.994,4.728-4.586,7.029c-0.762,1.102-1.513,1.883-2.154,2.754
	c-3.344,1.917-6.923,3.07-11.09,4.262c-5.951,1.703-11.782,3.929-17.422,6.467c-5.904,2.656-11.205,6.205-15.644,10.919
	c-1.734,1.841-3.195,3.715-4.935,5.355c-1.312-0.235-2.622-0.459-3.924-0.595c-1.244-0.129-4.073-0.704-5.073,0.531
	c-1.325,1.639-2.689,3.279-3.918,5.003c-0.519,0.031-1.034,0.053-1.545,0.055c-2.699,0.009-5.965-0.284-8.205,1.569
	c-4.346,3.595-6.212,9.792-7.828,15.342c-3.942,3.691-7.201,8.779-9.883,13.086c-3.582,5.753-5.853,12.309-4.97,19.12
	c0.694,5.359,5.65,19.063,12.337,18.991c0.242-0.003,0.457-0.046,0.655-0.107c0.54,0.073,1.102-0.177,1.492-0.52
	c2.995-2.632,3.791-6.527,5.341-10.049c1.93-4.382,4.417-8.744,6.917-12.821c2.819-4.6,6.574-6.892,10.589-10.171
	c1.42-1.16,2.01-3.586,2.696-5.16c1.041-2.389,2.918-4.206,3.996-6.547c0.039-0.084,0.069-0.172,0.094-0.262
	c5.02-2.522,9.877-5.486,14.626-8.396c7.904-4.842,18.16-6.159,26.842-9.355c7.948-2.927,16.244-4.766,23.642-9.025
	c1.622-0.935,3.284-2.005,4.927-3.18c2.437-1.588,4.731-3.724,6.644-5.039c6.322-4.349,10.499-11.348,15.802-16.827
	c5.452-5.635,11.329-10.848,16.982-16.274c3.203-3.075,6.818-6.021,10.113-9.213c1.133,1.815,2.473,3.538,3.598,5.282
	c3.117,4.828,4.88,10.688,7.133,15.96c2.155,5.045,4.581,9.944,7.248,14.737c0.396,0.711,0.802,1.448,1.216,2.193
	c-2.514,0.884-4.956,2.006-7.324,3.27c-6.085,3.247-12.204,5.965-17.729,10.159c-5.732,4.352-10.952,7.527-17.8,9.774
	c-4.298,1.41-8.304,3.969-12.283,6.426c-1.729-0.109-3.458-0.217-5.164,0.15c-4.94,1.063-8.612,4.283-12.104,7.762
	c-3.313,3.298-6.653,6.365-10.129,9.485c-2.457,2.203-4.035,4.668-2.815,7.614c0.495,2.152,1.813,3.411,3.586,5
	c3.182,2.852,5.976,6.167,8.748,9.413c4.127,4.832,6.495,10.456,10.06,15.638c2.742,3.982,6.625,6.618,11.457,7.223
	c5.639,0.706,12.187,2.2,17.495-0.521c0.823-0.422,1.142-1.139,1.111-1.859c0.041-0.182,0.064-0.375,0.042-0.593
	c-0.008-0.082-0.027-0.158-0.039-0.239c0.197-0.342,0.342-0.721,0.383-1.122c0.603-5.88-6.224-10.019-10.356-12.673
	c-4.396-2.821-4.559-6.285-3.905-10.967c0.096-0.687,0.197-1.402,0.262-2.123c0.018-0.025,0.033-0.056,0.05-0.08
	c1.325-1.952,3.743-5.012,4.773-7.946c3.586-1,7.854-4.454,10.241-5.751c9.646-5.243,20.438-6.806,30.225-11.512
	c8.92-4.288,17.501-8.938,26.049-13.861c3.652-1.721,11.779-6.432,11.669-11.564c0.556-2.949-0.115-6.636-0.552-8.856
	c-0.584-2.969-1.529-5.852-2.185-8.802c-1.312-5.895-1.482-12.215-2.044-18.217c-1.027-11.008-2.497-21.914-6.562-32.267
	c-2.024-5.154-4.643-9.868-6.307-15.176c-1.169-3.73-2.745-7.57-3.862-11.448c0.096-0.118,0.174-0.26,0.215-0.443
	c1.089-4.785,0.737-9.729,1.988-14.515c1.119-4.289,3.774-7.227,6.773-10.323c7.176-7.409,14.093-15.271,22.46-21.37
	c7.034-5.128,13.751-9.719,18.568-17.139c2.777-4.278,5.738-7.618,9.778-10.576c1.704-0.625,3.373-1.25,4.964-1.693
	c3.976-1.109,7.704-0.91,11.694-1.52c4.92-0.751,6.478,2.608,10.635,3.47c1.178,0.244,2.502-0.157,3.735-0.757
	c4.547,1.846,9.488,3.098,14.149,4.251c4.239,1.049,9.319,2.836,14.041,3.262c2.058,0.843,4.728,0.78,6.79,0.814
	c2.679,0.044,5.021-2.217,7.03-3.649c2.958-2.107,6.275-3.827,9.348-5.771c5.814-3.681,11.417-7.706,16.501-12.352
	c4.811-4.397,10.072-9.161,14.303-14.141c2.989-1.815,5.865-3.878,8.515-6.154C590.372,174.504,594.309,168.591,591.497,164.591z
	 M133.166,331.362c-0.138-0.286-0.285-0.575-0.416-0.861c-0.516-1.126-1.054-2.265-1.593-3.415c-0.486-2.883-1.22-5.81-1.332-8.447
	c-0.257-6.048,0.285-12.136,0.674-18.169c0.16,1.35,0.337,2.703,0.529,4.064c0.847,6.01,1.211,11.97,1.773,18.001
	C133.078,325.505,133.345,328.385,133.166,331.362z"/>
</svg>
