<?xml version="1.0" encoding="utf-8"?>
<!-- Generator: Adobe Illustrator 15.0.0, SVG Export Plug-In . SVG Version: 6.00 Build 0)  -->
<!DOCTYPE svg PUBLIC "-//W3C//DTD SVG 1.1//EN" "http://www.w3.org/Graphics/SVG/1.1/DTD/svg11.dtd">
<svg version="1.1" id="Слой_1" xmlns="http://www.w3.org/2000/svg" xmlns:xlink="http://www.w3.org/1999/xlink" x="0px" y="0px"
	 width="600px" height="600px" viewBox="0 0 600 600" enable-background="new 0 0 600 600" xml:space="preserve">
<path fill="none" stroke="#0D0F0F" stroke-miterlimit="10" d="M463.294,248.774c0.146-0.35,0.192-1.487-0.366-1.589
	c-3.453-0.629-11.991,0.885-16.723,0.386c-12.237-1.292-24.144-4.525-36.572-4.525c-7.06,0-12.942-0.848-19.777-1.783
	c-8.382-1.146-17.295-0.585-25.883-0.607c-10.65-0.028-21.729,1.398-32.127,2.436c-10.106,1.008-19.915-0.214-29.88-1.283
	c-9.665-1.036-20.255-1.49-29.651-4.325c-4.887-1.475-8.448-1.498-14.849-2.856c-3.183-0.675-15.43-7.739-19.671-12.266
	c-7.132-7.612-6.661-13.984-2.451-23.129c0.216-0.47,0.597-1.3,1.046-2.297c0.187,0.103,4.955,3.027,7.352,3.175
	c5.271,0.324,11.584-6.016,18.883-20.046c1.247-2.396,1.681-5.53,2.835-7.786c2.715-5.31,4.501-9.854,5.005-13.063
	c2.744-17.473-9.134-25.751-20.769-28.381c-0.183-0.446-0.415-0.879-0.673-1.305c-2.45-17.383-38.633-6.925-33.552,8.875
	c0.02,2.11,0.889,4.123,2.972,5.824c0.047,0.039,0.096,0.069,0.144,0.106c-1.29,2.367-2.354,5.039-3.08,8.075
	c-1.184,4.943-0.691,9.86,0.334,14.784c0.691,3.324,1.803,6.448,1.925,9.878c0.072,2.053-0.645,4.154-1.587,6.127
	c-0.343,0.585-0.683,1.173-1.017,1.763c-1.297,2.055-2.477,4.141-3.508,6.149c-2.018,3.929-3.981,7.835-7.049,11.066
	c-1.645,1.731-6.599,3.816-9.294,2.286c-3.862-15.928,0.423-51.8-1.334-76.676c-0.36-5.106,0.638-10.282,0.874-15.373
	c0.471-10.188-0.61-20.391,1.796-30.351c2.177-9.01,5.527-17.783,7.855-26.759c1.724-6.644,4.858-11.413,7.958-17.441
	c0.975-1.896,1.721-3.744,2.558-5.739c1.593-3.797,5.781-8.838,5.713-9.484c-0.176-1.661-1.986-1.294-1.986-1.294
	s0.41-0.681,2.576-3.014c0.878-0.946,0.109-2.1-2.264-1.331c0.642-0.972,2.308-2.18,1.539-3.078
	c-0.264-0.309-2.051-0.256-3.013,0.384c1.064-1.111-1.078-1.993-2.746-1.274c-2.961,1.274-8.393,5.259-10.942,7.823
	c-3.63,3.65-7.685,12.865-12.729,14.27c-2.778,0.746-6.586-5.423-7.106-8.208c-1.551-8.314-3.714-9.365-5.142-9.789
	c-4.103-1.218,0.103,11.286,1.38,16.553c1.33,5.491,3.283,11.493,3.344,17.439c0.045,4.351,0.118,8.733,0,13.083
	c-0.146,5.387-7.691,33.599-9.176,44.345c-1.052,7.615-1.497,13.922-0.493,27.385c0.431,5.773-4.009,27.775-5.377,55.648
	c-0.793,16.167-1.003,30.769-3.248,34.368c-3.657,5.432-7.509,12.538-11.301,18.591c-3.345,5.34-3.977,11.974-4.26,18.25
	c-0.627,13.874,2.052,17.193,1.369,37.827c-0.287,8.662-1.921,20.863-4.447,29.295c-2.982,9.961-6.153,20.527-9.575,46.852
	c-1.365,10.506,0.135,19.881,2.319,30.351c2.847,13.647,15.977,47.621,33.418,68.823c2.283,2.774,5.167,6.874,10.601,8.892
	c7.113,2.641,11.979,3.507,16.928-1.539c3.922-4,6.575-9.913,9.746-14.535c0.809,1.769,7.104,11.62,8.786,13.278
	c2.439,2.405,6.833,4.328,9.862,6.207c9.01,5.591,18.046,11.229,26.665,17.449c10.249,7.396,17.767,12.208,27.529,20.348
	c6.754,5.632,16.857,13.974,22.817,20.348c4.437,4.745,9.584,8.228,14.628,12.388c5.891,4.858,10.708,11.116,16.749,16.016
	c2.93,2.376,5.756,4.661,8.284,7.506c1.363,1.534,4.123,6.333,6.438,6.161c4.666-0.347,6.441-13.504,5.635-16.765
	c-2.957-11.927-14.363-13.679-19.15-25.647c-2.065-5.163-3.292-10.58-8.628-13.773c-4.41-2.638-11.51-2.16-16.493-3.667
	c-12.096-3.658-22.536-18.113-30.117-27.283c-4.967-6.006-9.239-12.665-14.946-17.934c-5.066-4.676-10.492-8.158-16.494-11.802
	c-4.486-2.724-12.458-5.568-15.344-10.012c-1.533-2.358-6.601-18.26-7.753-21.885c3.248-6.232,14.035-19.951,16.928-24.452
	c13.85-21.545,14.852-20.61,24.45-28.555c5.579-4.615,11.951-8.859,15.219-13.337c2.056-2.818,9.749-11.014,12.311-13.509
	c4.757-4.633,6.765-7.12,5.742-8.378c-3.452-4.25-16.479-3.96-21.131-1.539c-6.574,3.423-9.361,7.729-14.688,12.559
	c-5.53,5.015-11.043,6.706-17.466,9.935c-5.74,2.883-9.981,4.49-10.252,11.534c-0.277,7.205,1.631,11.395-3.077,16.757
	c-4.147,4.723-4.852,2.237-16.313,15.19c-3.933-28.042-2.248-31.112-2.301-43.848c-0.113-27.062-19.517-31.531-8.402-56.837
	c3.353-7.633,6.049-12.834,9.917-18.639c4.085-6.129,7.535-9.352,13.354-14.542c4.84-4.317,11.139-8.523,17.005-11.362
	c18.566-8.987,41.1-7.78,61.398-7.78c9.636,0,18.89,1.952,28.612,2.052c13.984,0.144,27.769-3.583,41.41-6.165
	c7.545-1.428,14.089-1.977,20.577-2.994c4.986-0.781,11.819-1.025,16.011,2.067c9.446,6.971,19.678,15.846,23.132,12.833
	c2.193-1.915-1.062-2.469-4.717-6.387c-3.328-3.568-8.409-5.206-6.242-7.96c0.251-0.318,0.97-0.9,1.453-1.053
	c1.823-0.573,11.083,0.698,14.962,0.86c4.19,0.177,12.962-0.881,14.327-1.498c2.524-1.143,2.729-2.104,1.724-2.581
	c-0.579-0.274-4.384-0.237-6.684-0.234C459.435,251.088,462.749,250.088,463.294,248.774z"/>
</svg>
