<?xml version="1.0" encoding="utf-8"?>
<!-- Generator: Adobe Illustrator 15.0.0, SVG Export Plug-In . SVG Version: 6.00 Build 0)  -->
<!DOCTYPE svg PUBLIC "-//W3C//DTD SVG 1.1//EN" "http://www.w3.org/Graphics/SVG/1.1/DTD/svg11.dtd">
<svg version="1.1" id="_x34_" xmlns="http://www.w3.org/2000/svg" xmlns:xlink="http://www.w3.org/1999/xlink" x="0px" y="0px"
	 width="600px" height="600px" viewBox="0 0 600 600" enable-background="new 0 0 600 600" xml:space="preserve">
<path fill="none" stroke="#0D0F0F" stroke-miterlimit="10" d="M479.608,205.802c-0.099-0.578-0.206-1.146-0.313-1.71
	c2.662-5.444,3.036-12.318,2.78-18.132c-0.063-1.427-1.017-6.25-2.776-8.271c-2.896-6.702-9.792-10.821-17.332-13.903
	c-0.482-0.709-0.942-1.433-1.378-2.153c-1.117-1.848-1.673-6.215-1.673-6.215s-2.921,1.331-2.845,6.271
	c-3.657-1.241-8.444-2.875-11.547-4.027c-1.86-1.441-4.095-2.368-6.473-2.429c-0.536-0.015-1.086,0.001-1.638,0.035
	c-4.143-0.518-16.709,1.238-16.709,1.238s1.519,2.5,4.177,3.28c0.524,0.154,1.821,0.304,1.938,0.316
	c0.237,0.045,0.479,0.085,0.711,0.137c-1.305,0.559-2.647,1.044-4.102,1.325c-2.426,0.466-4.459,1.604-6.337,3.025
	c-0.765,0.672-2.446,1.206-3.514,1.276c-5.354,0.353-6.805-0.369-16.697-0.175c-1.041-0.034-2.081,0.522-2.433,1.807
	c-0.643,2.353,0.066,4.674,0.048,7.062c-0.008,0.912-0.377,1.793-0.563,2.686c-3.363,1.138-6.876,2.387-9.654,4.129
	c-1.514,0.515-5.561,2.79-6.062,3.36c-2.521,1.469-2.318,6.038-0.811,9.234c3.171,6.727,2.647,10.879-1.447,17.142
	c-0.64,0.978-1.349,1.99-2.079,3.026c-1.293,1.307-2.625,2.629-3.906,4.015c-3.79-6.438-7.855-12.766-12.344-18.313
	c-7.796-9.632-16.211-18.743-24.207-28.202c-3.657-4.327-6.56-9.286-9.148-14.466c-0.134-4.419-1.399-9-3.113-13.433
	c1.939,1.328,3.859,2.682,5.63,4.196c3.972,3.396,13.073,18.002,13.794,19.752c0.593,1.44,2.014,3.384,2.014,3.384
	s0.277-5.551-0.113-10.535c-0.058-1.805-0.231-5.213-0.555-6.989c-0.849-4.642-3.331-9.151-5.643-13.189
	c-1.674-2.925-3.805-6.382-6.255-9.638c3.505,0.811,7.278,0.803,10.182-0.717c6.649-3.481,7.983-6.87,7.905-7.121
	c0.022-0.043-3.31,1.353-3.891,1.506c-4.267,1.129-6.011,0.198-8.693,0.181c-1.047-0.278-2.073-0.639-3.053-1.101
	c-4.001-1.886-3.12-6.395-2.778-10.026c0.149-1.575,0.217-3.211,0.122-4.808c5.058,3.645,10.739,6.597,16.287,8.822
	c7.131,2.859,14.786,4.505,20.742,8.806c0.341,0.749,3.477,2.519,5.495,6c0.7,1.208,3.377,9.138,3.753,7.813
	c0.386-1.357-0.562-9.772-1.132-10.951c-2-4.128-2.886-8.574-4.308-12.873c0.725,0.51,1.447,0.984,2.16,1.351
	c1.984,1.021,4.186,1.84,6.326,2.454c25.189,7.219,29.079,16.505,29.079,16.505s0.102-6.06-0.146-7.597
	c-1.583-9.873-8.615-16.203-16.752-21.046c2.846,0.05,5.697,0.028,8.55-0.041c3.525,0.596,19.642-0.681,19.642-0.681
	s-3.171-0.278-7.796-0.958c-8.759-1.287-16.616-4.082-24.528-8.669c-2.1-1.217-4.029-2.669-5.908-4.188
	c5.257,0.429,10.312,2.313,15.542,3.001c10.03,1.321,19.636,1.955,29.528-0.016c3.149,0.046,10.322-3.495,8.975-3.535
	c-4.699-0.141-13.302-0.568-21.086-3.558c-1.069-0.479-14.296-6.679-19.125-7.962c0.271-0.145,0.548-0.276,0.821-0.418
	c1.866-0.583,3.727-1.403,5.429-2.43c0.141-0.066,0.283-0.128,0.423-0.195c5.656-2.164,11.376-3.807,17.524-3.703
	c1.788,0.03,23.293,6.529,23.293,6.529s-4.77-9.161-23.813-16.287c-3.929-1.47-8.287-0.879-12.446-1.09
	c9.906-7.973,19.732-7.083,18.771-7.588c-1.078-0.567-2.2-1.02-3.34-1.419c-0.237-0.15-0.515-0.253-0.845-0.297
	c-7.974-2.493-17.232-1.351-25.806,0.128c-2.115-0.055-4.231-0.159-6.354-0.395c-12.567-1.391-22.456-3.496-32.758-11.112
	c-8.215-6.074-16.439-11.659-25.49-16.456c-6.268-3.322-15.174-6.953-22.841-6.449c-2.613-0.498-5.452-0.656-8.577-0.474
	c-10.029,0.584-19.918,5.214-25.946,13.406c-3.333,4.528-5.802,9.562-8.537,14.458c-3.517,6.289-3.331,12.738-5.3,19.481
	c-2.977,10.203-10.691,20.446-7.026,31.18c-2.097,1.821-3.459,2.814-3.505,2.901c-9.375,9.9-9.823,32.748-10.958,43.071
	c-1.563,14.228,3.283,27.946,7.68,41.277c3.944,11.949,9.015,23.917,14.262,35.424c0.885,3.871,1.56,7.815,1.828,11.74
	c0.269,3.934-1.042,7.629-1.227,11.482c-6.306,2.95-12.067,7.02-17.709,11.177c-7.493,5.521-15.607,10.265-21.256,17.877
	c-7.085,9.55-12.29,20.297-20.02,29.377c-3.353,3.937-13.034,18.928-14.303,21.297c-2.118,3.953,0.746,4.854,4.071,7.031
	c6.826,4.471,20.384,10.108,24.331,11.186c4.653,1.269,8.107,4.802,12.566,6.62c4.812,1.962,9.113,4.877,13.994,6.602
	c-0.727,7.586,0.353,15.514,0.688,23.027c0.253,5.617,0.021,11.128-1.631,16.538c-0.805,2.637-2.36,4.715-3.931,6.775
	c-1.797,1.48-3.612,2.913-5.5,4.184c-6.759,4.544-13.8,8.208-20.193,13.356c-2.413,1.944-4.969,3.918-7.522,5.968
	c-2.651,1.697-15.931,13.169-24.161,24.195c-5.81,7.786-29.5,37.791-29.634,37.904c-0.777,0.507-1.552,1.01-2.335,1.498
	c-6.017,0.118-13.456-0.896-17.912,3.473c-4.547,4.457-4.936,10.102-4.406,16.173c0.314,3.613,0.987,7.171,1.187,10.798
	c0.269,4.884-1.522,9.907-2.875,14.531c-1.756,5.994-3.118,18.261-3.134,18.588c-0.29,5.625,0.828,10.343,3.816,15.132
	c2.525,4.047,5.55,8.28,9.368,11.193c5.087,3.882,7.681-0.236,8.816-5.919c0.913-2.882,3.822-14.773,3.528-17.55
	c0.512-3.599,0.835-7.209,1.477-10.398c0.67-3.345,1.956-6.336,3.461-9.197c0.062-0.199,0.142-0.397,0.241-0.596
	c0.841-1.654,2.183-2.956,3.103-4.561c0.209-0.328,0.453-0.578,0.708-0.796c-0.057,3.071,0.225,6.131,0.371,9.253
	c0.026,0.574,0.031,1.146,0.04,1.72c-0.14,1.791-0.227,3.585-0.141,5.338c-0.253,4.15-0.749,8.299-0.971,12.438
	c-0.461,8.604-0.618,17.712,4.834,24.788c0.565,1.148,1.569,1.877,3.188,2.062c1.541,0.179,7.063-3.491,7.984-4.565
	c2.838-2.471,4.303-7.058,5.683-10.311c1.29-3.046,1.738-6.653,2.253-10.06c0.994-6.553,2.687-13.075,4.781-19.382
	c0.654-1.97,1.272-3.947,1.835-5.938l0.003-0.001c2.76-6.65,5.338-13.383,7.727-20.22c0.244-0.698,0.509-1.384,0.766-2.073
	c3.109-5.548,6.246-11.078,9.629-16.459c5.771-9.176,13.309-17.158,20.345-25.351c6.79-7.909,14.272-17.726,21.965-24.743
	c14.296-13.038,22.308-13.291,30.066-18.232c-0.773,11.787-2.404,23.485-3.519,35.246c-0.697,7.335-0.95,14.718-1.162,22.106
	c-0.433,9.113-1.044,17.923-2.265,27.031c-1.585,11.85-1.805,23.727-1.544,35.666c0.065,2.973,0.259,5.932,0.51,8.883
	c-1.167,8.395-0.21,16.977,0.543,25.449c-0.147,2.229-0.027,4.432,0.3,6.61c0.382,4.712,0.235,6.914,2.494,11.187
	c37.965,0,104.74,0,104.74,0s-1.671-5.459-3.063-7.302c-0.256-0.434-0.512-0.866-0.768-1.3c-0.168-0.359-0.34-0.715-0.516-1.069
	c-1.886-13.495-7.769-25.942-11.674-38.958c-4.208-14.02-0.502-29.74,1.185-43.932c1.971-16.59,2.772-33.14,6.258-49.517
	c2.764-12.991,6.003-25.866,6.933-39.095c4.268,1.909,8.636,3.622,13.062,5.19c0.99,0.35,2.444-0.199,2.889-1.177
	c3.206-7.043,2.448-14.892,1.719-22.397c-1.065-10.964-1.479-21.996-2.732-32.935c-0.61-5.32-2.023-10.454-2.233-15.826
	c-0.227-5.798,1.006-11.714,1.495-17.476c0.577-6.788,1.795-13.366,3.679-19.759c0.693-1.636,1.378-3.277,2.108-4.883
	c0.547-0.921,1.137-1.82,1.758-2.703c1.884-1.931,3.535-4.152,5.131-6.417c2.678-3.059,5.468-6.031,7.903-9.138
	c1.202-1.533,2.298-3.159,3.342-4.824c2.13-2.563,4.146-5.213,5.956-8.218c3.679-6.102,4.839-12.37,5.854-19.302
	c0.34-2.319,0.819-4.653,1.322-6.996c0.711,0.656,1.447,1.288,2.262,1.85c1.319,0.912,2.985,1.916,4.688,1.447
	c1.404-0.385,3.238-2.509,3.998-3.003c2.171-1.409,5.259-1.815,7.755-2.341c6.634-1.403,12.879-2.295,18.276-6.294
	c0.192-0.08,0.386-0.178,0.576-0.321c2.944-2.194,9.211-6.212,13.296-13.18c-0.065,1.395,2.017,5.021,2.017,5.021
	s0.471-1.6,1.337-2.997c4.844-7.98,4.404-17.143,1.221-25.583C479.683,206.294,479.648,206.033,479.608,205.802z M326.552,232.87
	c0.018-2.644,0.035-5.285,0.015-7.913c2.705,1.131,5.391,2.194,7.781,3.385c2.447,1.221,4.887,2.46,7.324,3.706
	C336.717,232.43,331.397,231.818,326.552,232.87z"/>
</svg>
