<?xml version="1.0" encoding="utf-8"?>
<!-- Generator: Adobe Illustrator 15.0.0, SVG Export Plug-In . SVG Version: 6.00 Build 0)  -->
<!DOCTYPE svg PUBLIC "-//W3C//DTD SVG 1.1//EN" "http://www.w3.org/Graphics/SVG/1.1/DTD/svg11.dtd">
<svg version="1.1" id="_x33_" xmlns="http://www.w3.org/2000/svg" xmlns:xlink="http://www.w3.org/1999/xlink" x="0px" y="0px"
	 width="600px" height="600px" viewBox="0 0 600 600" enable-background="new 0 0 600 600" xml:space="preserve">
<path fill="none" stroke="#0D0F0F" stroke-miterlimit="10" d="M421.384,157.664c-1.607-11.09-4.523-21.686-9.241-31.49
	c-3.079-11.621-12.697-22.641-20.435-31.492c-6.152-7.039-6.781-13.766-6.984-23.519c10.255-41.99-16.407-53.518-42.156-57.041
	c-13.979-1.912-28.576,3.899-38.79,13.681c-5.429,5.198-13.164,11.62-16.922,19.048c-10.054,12.266,0.531,17.169,5.294,18.158
	c1.334,2.04,2.164,4.58,3.313,6.722c1.152,2.146,3.062,4.607,5.192,6.574c0.035,0.067,0.074,0.13,0.111,0.197
	c0.195,1.84,0.408,3.676,0.528,5.488c0.111,1.672,0.126,3.451,0.176,5.249c-0.993-0.078-1.983-0.183-2.973-0.36
	c-3.191-3.253-6.649-6.354-10.203-9.147c-1.878-4.752-4.443-9.226-9.771-10.771c-8.793-2.55-16.995-0.757-24.89,3.587
	c-4.115,2.264-7.323,5.147-10.194,8.834c-0.005,0.006-0.012,0.012-0.017,0.019c-7.106,5.431-16.52,11.28-19.783,19.34
	c-0.344,0.854-1.493,11.767,0.405,15.367c1.805,3.426,6.58,7.061,7.697,11.206c-0.039,0.147-0.062,0.294-0.103,0.441
	c-12.578,0.973-21.411,19.026-16.505,30.062c2.149,4.833,5.932,8.195,9.595,11.932c2.537,2.587,4.973,5.251,7.004,8.262
	c4.238,6.28-4.079,9.804-11.103,8.494c-1.219-0.229,6.094,6.157,14.574,6.317c-3.199,9.575-2.692,22.71-3.144,31.167
	c-0.925,17.287,0.881,34.755,1.114,52.048c0.013,1.044-0.023,2.074-0.068,3.094c-0.114,1.282-0.198,2.567-0.244,3.851
	c-0.179,2.283-0.375,4.502-0.402,6.644c-0.153,1.33-0.309,2.66-0.425,3.992c-0.389,4.467-1.169,7.097,2.811,9.6
	c2.121,1.333,4.371,2.702,6.714,4.017c-2.339,3.899-5.244,7.254-8.791,10.777c-10.143,10.073-19.159,21.864-27.118,33.714
	c-7.939,11.82-11.907,25.992-16.425,39.337c-5.063,14.952-5.055,33.548-10.608,48.387c-2.201,2.634,11.503,12.14,17.861,15.025
	c3.877,1.757,7.744,3.523,11.613,5.274c-1.85,10.768-2.556,21.88-4.18,32.657c-0.384,2.541-0.88,5.065-1.418,7.583
	c-2.655,5.522-6.192,10.607-8.869,16.127c-5.014,10.34-7.619,21.738-9.658,32.977c-3.394,18.702-3.427,50.908-3.427,50.908
	s35.353-0.003,45.125,0c1.88-16.849,3.373-29.99,5.461-46.833c1.143-9.213,2.881-18.29,6.553-26.858
	c3.41-7.961,8.19-15.327,11.663-23.295c2.069-4.746,3.753-9.668,4.962-14.703c0.531-2.212,0.95-8.343,2.186-11.718
	c8.329,1.491,16.749,2.302,25.238,2.721c-0.937,7.134-2.229,14.222-3.269,21.335c-2.414,16.517-3.431,33.259-1.615,49.822
	c2.362,21.558,3.597,49.529,3.597,49.529h104.994c0,0,0.269-23.707-0.272-34.653c-0.485-9.812-1.291-19.556-2.868-29.254
	c-0.817-5.035-2.3-9.894-3.646-14.799c-1.757-6.397-0.938-12.967,0.021-19.406c0.463-3.112,1.084-6.247,1.612-9.396
	c0.151-0.26,0.297-0.521,0.448-0.781c4.411-7.525,6.908-13.876,8.067-22.584c2.62-19.691,5.63-39.2,7.164-59.031
	c1.598-20.658,4.057-41.24,5.69-61.895c0.765-9.639,0.927-19.27,0.761-28.935c-0.107-6.323,0.304-12.584-0.327-18.765
	c6.365-4.391,11.102-11.242,13.255-18.755c2.652-9.246,2.356-19.263,3.731-28.724c1.55-10.674,3.919-21.193,5.215-31.912
	C426.749,200.76,424.314,177.895,421.384,157.664z M295.529,378.561c-0.914,6.662-1.392,13.381-2.638,19.993
	c-0.943,5.002-2.352,9.798-3.922,14.531c-0.87-6.464-1.591-12.953-0.685-19.639c1.445-10.654,5.912-20.821,10.061-30.725
	C297.505,368.016,296.253,373.286,295.529,378.561z M354.236,125.328c-0.842,4.894-4.91,9.946-7.625,13.973
	c-5.253,7.793-10.09,15.754-14.361,24.134c-4.002,7.848-6.626,16.646-9.032,25.083c-1.553,5.445-2.013,11.171-2.738,16.838
	c-0.491,2.572-0.995,5.187-1.482,7.827c-0.592-0.45-1.194-0.89-1.801-1.322c-4.905-12.508-15.935-22.441-19.678-35.653
	c-2.395-8.458-2.655-17.765-0.988-26.367c2.267-11.699,12.046-17.596,20.796-24.265c0.315-0.241,0.521-0.515,0.678-0.799
	c2.229-2.167,2.374-6.061,1.85-9.146c-0.01-0.06-0.028-0.121-0.04-0.181c1.521,0.591,2.999,1.289,4.26,2.459
	c2.041,1.895,5.108,4.339,8.16,3.263c2.669-0.94,4.229-2.973,6.673-4.288c3.709-2,8.055-2.528,12.288-0.367
	c1.162,0.593,1.994,1.392,2.619,2.32c0.237,0.721,0.473,1.441,0.707,2.169C354.557,122.411,354.492,123.842,354.236,125.328z"/>
</svg>
