<?xml version="1.0" encoding="utf-8"?>
<!-- Generator: Adobe Illustrator 15.0.0, SVG Export Plug-In . SVG Version: 6.00 Build 0)  -->
<!DOCTYPE svg PUBLIC "-//W3C//DTD SVG 1.1//EN" "http://www.w3.org/Graphics/SVG/1.1/DTD/svg11.dtd">
<svg version="1.1" id="_x31_" xmlns="http://www.w3.org/2000/svg" xmlns:xlink="http://www.w3.org/1999/xlink" x="0px" y="0px"
	 width="600px" height="600px" viewBox="0 0 600 600" enable-background="new 0 0 600 600" xml:space="preserve">
<path fill="none" stroke="#000000" stroke-miterlimit="10" d="M548.464,349.478c-1.133-23.587-0.293-46.952,0.715-70.513
	c0.713-16.586-1.365-32.956-7.89-48.281c-7.328-17.218-18.747-31.746-40.337-42.621c-0.029-0.016-24.946-12.608-35.979-21.528
	c-2.692-2.175-4.927-4.479-6.823-6.889c3.71-3.021,7.181-6.5,10.678-9.182c2.845-2.182,6.911-4.535,8.93-7.604
	c1.319-2.004,1.601-3.707,1.567-5.514c0.087-0.225,0.148-0.466,0.157-0.731c0.047-1.385-0.011-2.525-0.308-3.754
	c-0.499-8.329-0.434-16.716-1.313-25.012c-0.766-7.206-2.379-14.343-3.623-21.51c-0.875-3.049-1.698-6.109-2.246-9.21
	c-0.187-0.674-0.367-1.347-0.556-2.021c-2.136-5.135-4.21-10.312-6.579-15.324c-0.344-0.541-0.667-1.093-1.025-1.625
	c-0.585-1.383-1.208-2.746-1.857-4.093c-2.125-3.939-4.136-7.929-6.861-11.503c-1.871-2.455-3.858-4.684-5.521-7.194
	c-5.288-5.898-11.657-11.07-19.365-15.259c-8.332-4.528-19.651-7.538-30.708-7.85c-7.539,0.591-14.976,1.789-21.913,5.054
	c-2.567,1.208-8.288,4.363-8.532,4.608c-3.659,0.753-7.11,2.12-10.144,4.277c-10.027,4.723-18.904,11.853-25.692,20.988
	c-8.199,11.033-13.621,23.672-13.871,37.547c-0.018,0.991-0.003,1.979,0.043,2.962c-0.021,7.997,1.065,15.968,2.092,24.233
	c0,0.014-0.001,0.03-0.003,0.044c-0.045,0.749-0.107,1.493-0.142,2.246c-0.144,3.289,0.046,6.544,0.358,9.787
	c0.033,0.547,0.062,1.094,0.101,1.641c0.096,1.335,0.302,2.684,0.532,4.035c0.133,1.112,0.258,2.227,0.386,3.34
	c0.017,5.825,0.275,11.631,1.245,17.439c1.727,10.351,5.576,20.322,8.904,30.23c2.707,8.055,5.59,17.109,12.051,22.982
	c0.517,0.469,1.163,0.532,1.715,0.343c0.331-0.013,0.678-0.083,1.031-0.24c0.313-0.137,0.605-0.301,0.907-0.454
	c10.484-3.091,20.84-9.926,30.296-15.043c6.635-3.59,13.444-6.944,20.668-9.172c2.027-0.626,4.054-1.104,6.011-1.688
	c0.253,0.667,0.471,1.336,0.648,2.021c0.124,0.151,0.228,0.335,0.298,0.559c0.063,0.203,0.113,0.424,0.171,0.635
	c0.05-0.024,0.094-0.061,0.142-0.088c2.038,7.58,2.953,15.356,0.896,23.124c-2.058,7.769-9.547,13.366-13.383,20.235
	c-0.766,0.952-1.485,1.921-2.138,2.899c-0.301,0.452-0.502,0.904-0.662,1.354c-4.31,0.832-8.648,1.575-13.058,2.121
	c-12.131,1.5-24.356,2.384-36.557,3.313c-10.791-1.774-21.531-3.788-32.453-4.648c-11.391-0.897-23.819-0.92-34.29,4.209
	c-2.285,1.12-17.272,11.341-18.051,18.274c-0.896,7.974,3.336,15.197,8.909,21.042c1.095,1.29,2.287,2.492,3.542,3.635
	c-2.341,4.088-24.197,47.929-27.49,55.72c-5.605,13.26-12.452,26.037-18.851,38.929c-2.299,4.631-4.744,9.203-7.263,13.745
	c-1.366,1.119-2.751,2.186-4.135,3.234c-4.162,1.501-8.206,2.911-11.465,6.182c-1.186,1.188-2.208,2.768-3.083,4.52
	c-2.787,1.667-5.313,5.729-6.026,7.91c-0.5,1.531-0.694,3.14-0.722,4.781c-0.896,1.666-1.608,3.574-2.149,5.418
	c-0.848,1.951-1.523,3.976-1.791,6.211c-0.139,1.164-0.075,2.336,0.116,3.513c-0.245,0.456-0.358,1.001-0.258,1.595
	c0.234,1.378,0.467,2.758,0.701,4.137c0.13,0.766,0.566,1.244,1.116,1.489c0.073,0.272,0.142,0.549,0.22,0.821
	c-0.122,0.257-19.672,36.774-37.842,60.562c-10.341,13.537-21.903,21.919-36.3,30.561c-12.216,7.331-24.25,15.361-35.834,23.837
	c-5.024,1.055-10.036,2.171-14.782,3.837c-0.854,0.3-1.463,0.777-1.874,1.337c-2.121,0.317-4.204,0.658-6.168,1.029
	c-1.746,0.327-2.65,1.389-2.919,2.64c-1.736,0.59-3.45,1.281-5.133,2.119c-0.368,0.185-0.674,0.416-0.952,0.667
	c-1.222-0.344-2.55-0.212-3.774,0.685l-0.342,0.251c-0.1,0.073-0.168,0.16-0.262,0.237c-0.192,0.097-0.385,0.194-0.577,0.291
	c-1.995,1.003-2.779,3.042-2.575,5.019c-0.056,0.975,0.252,1.957,1.031,2.792c0.406,0.576,0.923,1.076,1.544,1.449
	c0.298,0.182,0.597,0.336,0.897,0.488c4.366,2.872,9.372,3.687,14.564,3.373c2.894,0.286,5.923,0.215,8.96-0.052
	c13.111,0.833,27.128-4.61,39.397-7.302c8.896-1.951,17.156-2.118,26.179-1.234c2.911,0.285,5.967,0.605,9.054,0.879
	c-1.919,0.336-3.677,1.208-5.154,2.802c-2.271,2.448-2.632,6.38-1.19,9.331c1.277,2.611,3.768,3.877,6.542,4.323
	c0.583,0.093,1.351,0.226,2.183,0.347c0.196,0.873,0.954,1.638,1.782,1.987c2.586,1.09,5.865,1.583,9.039,1.367
	c0.064,0.055,0.109,0.114,0.179,0.164c3.1,2.218,8.173,3.071,12.557,2.188c0.311,0.347,0.703,0.61,1.106,0.678
	c3.789,0.63,7.702,0.458,11.328-0.631c1.558,2.182,6.332,1.031,10.883-0.944c11.288-0.611,19.579-5.459,27.274-12.008
	c12.573-7.764,27.333-9.974,35.801-12.26c12.801-3.454,14.258-7.476,15.426-22.836c0.536-7.045-1.399-8.17-2.932-15.052
	c-1.874-8.413,0.339-19.87,1.895-28.178c3.162-16.887,10.345-32.897,16.301-48.916c5.587-15.026,11.132-29.967,16.964-44.907
	c3.053-7.821,5.487-15.944,6.476-24.202c0.178,0.418,0.353,0.843,0.533,1.261c2.546,5.884,5.188,11.695,8.06,17.389
	c5.069,11.236,11.235,22.015,17.917,32.228c13.523,20.668,30.046,40.196,46.087,58.937c5.17,6.042,9.873,12.455,14.788,18.624
	c2.384,3.247,4.954,6.36,7.747,9.321c1.152,1.514,2.31,3.022,3.506,4.505c11.158,13.813,25.826,24.106,42.712,29.611
	c14.877,4.852,31.748,3.964,45.346-4.02c2.555-1.498,4.981-3.485,7.2-5.788c17.472-13.139,27.063-36.96,34.486-56.804
	c7.944-21.244,12.452-43.602,14.451-66.154C552.172,396.5,549.596,373.078,548.464,349.478z M229.306,483.201
	c-1.557,7.138-2.422,14.477-4.764,21.384c-4.68,13.803-12.092,18.08-19.378,24.945c-9.756,9.191-36.666,27.5-39.727,28.895
	c2.557-4.811,3.195-10.957,3.455-16.71c0.724-15.988,9.55-26.859,19.542-38.659c10.885-12.854,21.306-25.352,34.461-35.99
	c2.318-1.874,4.788-3.739,7.305-5.622C231.763,467.714,231.013,472.584,229.306,483.201z M357.089,297.726
	c-0.656-0.64-1.296-1.297-1.961-1.93c-1.355-1.72-2.723-3.43-4.11-5.126c-2.245-2.743-4.588-5.404-6.96-8.038
	c1.61-0.13,2.979-0.259,4.052-0.375c5.894-0.641,11.777-1.357,17.656-2.101C362.723,285.939,359.814,291.784,357.089,297.726z
	 M415.845,364.128c-0.31,0.628-0.617,1.255-0.926,1.886c-2.1-2.569-4.207-5.137-6.293-7.715
	c-6.537-8.077-12.889-16.263-19.355-24.351c2.282-4.572,4.663-9.103,7.086-13.631c4.306,8.818,13.326,13.711,21.206,19.477
	C417.912,352.024,416.182,362.639,415.845,364.128z"/>
</svg>
